# xmcd
# 
# Track frame offsets:
#     150
#     20413
#     41898
#     60521
#     79413
#     102369
#     117415
#     137758
#     151686
# 
# Disc length: 2321
# 
# Revision: 2
# Processed by: cddbd v1.5.2PL0 Copyright (c) Steve Scherf et al.
# Submitted via: BonkEnc v1.0rc1
# 
DISCID=72090f09
DTITLE=Oliver Dragojevic - Noc nek' tiho svira
DYEAR=0
DGENRE=
TTITLE0=Brod u boci
TTITLE1=Nocturno
TTITLE2=Molitva za Magdalenu
TTITLE3=Pismo moja
TTITLE4=Tristeca
TTITLE5=Romanca
TTITLE6=Galeb i ja
TTITLE7=Vise mi nije vazno
TTITLE8=Vridilo je
EXTD=
EXTT0=
EXTT1=
EXTT2=
EXTT3=
EXTT4=
EXTT5=
EXTT6=
EXTT7=
EXTT8=
PLAYORDER=
